<svg width="428" height="428" viewBox="0 0 428 428" fill="none" xmlns="http://www.w3.org/2000/svg">
<path d="M428 0H0V428H428V0Z" fill="white"/>
<path d="M57.5355 34L358.763 335.227" stroke="#1117A2" stroke-width="10"/>
<path d="M235 339.535C312.32 339.535 375 276.855 375 199.535C375 122.216 312.32 59.5354 235 59.5354C157.68 59.5354 95 122.216 95 199.535C95 276.855 157.68 339.535 235 339.535Z" fill="white" stroke="#1117A2" stroke-width="10"/>
<path d="M292.779 152.228H178.3C177.195 152.228 176.3 153.124 176.3 154.228V173.093C176.3 174.197 177.195 175.093 178.3 175.093H292.779C293.884 175.093 294.779 174.197 294.779 173.093V154.228C294.779 153.124 293.884 152.228 292.779 152.228Z" fill="#1117A2"/>
<path d="M292.779 189.642H178.3C177.195 189.642 176.3 190.538 176.3 191.642V208.428C176.3 209.533 177.195 210.428 178.3 210.428H292.779C293.884 210.428 294.779 209.533 294.779 208.428V191.642C294.779 190.538 293.884 189.642 292.779 189.642Z" fill="#1117A2"/>
<path d="M292.779 224.978H178.3C177.195 224.978 176.3 225.874 176.3 226.978V245.843C176.3 246.947 177.195 247.843 178.3 247.843H292.779C293.884 247.843 294.779 246.947 294.779 245.843V226.978C294.779 225.874 293.884 224.978 292.779 224.978Z" fill="#1117A2"/>
<path d="M78 345.535C64.7452 345.535 54 356.281 54 369.535C54 382.79 64.7452 393.535 78 393.535C91.2548 393.535 102 382.79 102 369.535C102 356.281 91.2548 345.535 78 345.535Z" fill="#1117A2"/>
</svg>
